<svg width="126" height="126" viewBox="0 0 126 126" fill="none" xmlns="http://www.w3.org/2000/svg">
<circle opacity="0.36" cx="64.5" cy="58.5" r="58.5" fill="url(#paint0_linear)"/>
<path d="M59.9032 24.1279C54.9661 24.1279 50.9496 28.1445 50.9496 33.0816V36.2651L56.9187 39.2496H62.8878L68.8569 36.2651V33.0816C68.8569 28.1445 64.8403 24.1279 59.9032 24.1279Z" fill="url(#paint1_linear)"/>
<path d="M68.8569 36.2651V33.0816C68.8569 28.1445 64.8403 24.1279 59.9032 24.1279V39.2496H62.8878L68.8569 36.2651Z" fill="#E64D2E"/>
<path d="M14.9362 114.062C16.3183 120.875 22.6376 126 29.8589 126C37.0801 126 43.5984 120.875 44.9805 114.062L38.4968 111.078H19.08L14.9362 114.062Z" fill="#474F54"/>
<path d="M29.8589 120.031C24.9218 120.031 20.9052 116.015 20.9052 111.078C20.9052 106.14 24.9218 102.124 29.8589 102.124C34.796 102.124 39.0115 106.14 39.0115 111.078C39.0115 116.015 34.796 120.031 29.8589 120.031Z" fill="#F2F9FF"/>
<path d="M44.9805 60.3403H26.8743L20.9052 66.3094V84.2167L26.8743 87.2012H44.9805L53.9342 84.2167V68.1001L50.9496 66.3094L44.9805 60.3403Z" fill="#FF9100"/>
<path d="M20.9052 54.3713V66.3095H50.9496L53.9342 64.7655L50.9496 63.325V54.3713H20.9052Z" fill="#FABE2C"/>
<path d="M62.8878 114.062H14.9362V111.078C14.9362 99.5399 24.4893 90.1857 36.0269 90.1857L41.0012 87.2012H68.8569V109.088L62.8878 114.062Z" fill="url(#paint2_linear)"/>
<path d="M56.9187 84.2167H14.9362V90.1858H56.9187V84.2167Z" fill="#32393F"/>
<path d="M77.8105 99.3198V110.542L74.8259 114.062H62.8878V90.1857H56.9187C53.6344 90.1857 50.9496 87.501 50.9496 84.2167V69.2939H68.8569V78.2476C72.1412 78.2476 74.8259 80.935 74.8259 84.2167V96.1548L77.8105 99.3198Z" fill="#575F64"/>
<path d="M77.8105 99.3198V110.542L74.8259 114.062H62.8878V90.1857H59.9032V69.2939H68.8569V78.2476C72.1412 78.2476 74.8259 80.935 74.8259 84.2167V96.1548L77.8105 99.3198Z" fill="#474F54"/>
<path d="M68.8569 66.3095V63.325C68.8569 58.3879 64.8403 54.3713 59.9032 54.3713C54.9661 54.3713 50.9496 58.3879 50.9496 63.325V69.294C50.9496 74.2391 54.9582 78.2477 59.9032 78.2477H83.9785C88.9236 78.2477 92.9322 74.2391 92.9322 69.294V66.3095H68.8569Z" fill="url(#paint3_linear)"/>
<path d="M92.9322 69.294V66.3095H68.8569V63.325C68.8569 58.3879 64.8403 54.3713 59.9032 54.3713V78.2477H83.9785C88.9236 78.2477 92.9322 74.2391 92.9322 69.294Z" fill="#E64D2E"/>
<path d="M62.8878 39.2496H56.9187L50.9496 42.2342V45.2187C50.9496 50.1558 54.9661 54.3713 59.9032 54.3713C64.8403 54.3713 68.8569 50.1558 68.8569 45.2187V42.2342L62.8878 39.2496Z" fill="#FFE1BA"/>
<path d="M68.8569 45.2187V42.2342L62.8878 39.2496H59.9032V54.3713C64.8403 54.3713 68.8569 50.1558 68.8569 45.2187Z" fill="#FFBFAB"/>
<path d="M59.9032 36.265H50.9496V42.2341H74.8259V36.265H59.9032Z" fill="#474F54"/>
<path d="M74.826 36.265H59.9032V42.2341H74.826V36.265Z" fill="#32393F"/>
<path d="M101.156 84.8853C100.827 82.5613 100.175 77.9877 98.8721 68.8722L86.9631 63.325V87.2013C86.9631 91.9102 82.9068 96.1549 77.8105 96.1549H74.826V114.062H110.839L116.808 111.078V105.109C116.808 95.5606 110.221 87.2358 101.156 84.8853Z" fill="#E64D2E"/>
<path d="M104.87 72.2786H95.9167C90.9796 72.2786 86.9631 68.2621 86.9631 63.325C86.9631 58.3879 90.9796 54.3713 95.9167 54.3713H104.87V72.2786Z" fill="url(#paint4_linear)"/>
<path d="M102.782 96.2451L101.915 99.5613L96.8718 97.0834C91.1149 99.1554 86.9631 104.615 86.9631 111.078C86.9631 119.307 93.6564 126 101.886 126C110.115 126 116.808 119.307 116.808 111.078C116.808 103.156 110.587 96.72 102.782 96.2451Z" fill="#32393F"/>
<path d="M101.886 102.124C96.9487 102.124 92.9322 106.14 92.9322 111.078C92.9322 116.015 96.9487 120.031 101.886 120.031C106.823 120.031 110.839 116.015 110.839 111.078C110.839 106.14 106.823 102.124 101.886 102.124Z" fill="#DFE7F4"/>
<path d="M104.841 110.656L102.782 96.2477C102.48 96.2291 102.191 96.1575 101.886 96.1575C100.119 96.1575 98.445 96.5209 96.8718 97.086L98.9304 111.502L104.841 110.656Z" fill="#C7CFE1"/>
<defs>
<linearGradient id="paint0_linear" x1="128.265" y1="-5.55242e-06" x2="101.264" y2="135.924" gradientUnits="userSpaceOnUse">
<stop stop-color="#F39323"/>
<stop offset="0.393311" stop-color="#F27D23"/>
<stop offset="1" stop-color="#F15A24"/>
</linearGradient>
<linearGradient id="paint1_linear" x1="69.6627" y1="24.1279" x2="66.6833" y2="41.8889" gradientUnits="userSpaceOnUse">
<stop stop-color="#F39323"/>
<stop offset="0.393311" stop-color="#F27D23"/>
<stop offset="1" stop-color="#F15A24"/>
</linearGradient>
<linearGradient id="paint2_linear" x1="71.2833" y1="87.2012" x2="68.1045" y2="119.323" gradientUnits="userSpaceOnUse">
<stop stop-color="#F39323"/>
<stop offset="0.393311" stop-color="#F27D23"/>
<stop offset="1" stop-color="#F15A24"/>
</linearGradient>
<linearGradient id="paint3_linear" x1="94.8214" y1="54.3713" x2="91.605" y2="82.8407" gradientUnits="userSpaceOnUse">
<stop stop-color="#F39323"/>
<stop offset="0.393311" stop-color="#F27D23"/>
<stop offset="1" stop-color="#F15A24"/>
</linearGradient>
<linearGradient id="paint4_linear" x1="105.676" y1="54.3713" x2="101.544" y2="75.175" gradientUnits="userSpaceOnUse">
<stop stop-color="#F39323"/>
<stop offset="0.393311" stop-color="#F27D23"/>
<stop offset="1" stop-color="#F15A24"/>
</linearGradient>
</defs>
</svg>
