<svg width="126" height="126" viewBox="0 0 126 126" fill="none" xmlns="http://www.w3.org/2000/svg">
<circle cx="63.5" cy="58.5" r="58.5" fill="#AFD8FF"/>
<path d="M60 12C57.7361 13.7333 54.5667 18.6182 60 24.2909C65.4333 29.9636 62.2639 35.7939 60 38" stroke="#D8F6FA" stroke-width="4" stroke-linecap="round" stroke-linejoin="round"/>
<path d="M49.5 20C47.6134 21.2 44.9723 24.5818 49.5 28.5091C54.0277 32.4364 51.3866 36.4727 49.5 38" stroke="#D8F6FA" stroke-width="4" stroke-linecap="round" stroke-linejoin="round"/>
<path d="M71.5 20C69.6134 21.2 66.9723 24.5818 71.5 28.5091C76.0277 32.4364 73.3866 36.4727 71.5 38" stroke="#D8F6FA" stroke-width="4" stroke-linecap="round" stroke-linejoin="round"/>
<path d="M85.579 65.8555H30.6316V124.121H85.579V65.8555Z" fill="#FFBC60"/>
<path d="M96 124.12H85.579L90.7895 114.723L96 124.12Z" fill="#E58923"/>
<path d="M90.3158 65.8555V116.352L85.579 124.121V65.8555H90.3158Z" fill="#FF9D13"/>
<path d="M96 65.8555V124.121L90.3158 116.352V65.8555H96Z" fill="#CF8C3C"/>
<path d="M55.2632 54.5784H49.579V65.8555H55.2632V54.5784Z" fill="#CF8C3C"/>
<path d="M45.7895 54.5784H40.1053V65.8555H45.7895V54.5784Z" fill="#FF9D13"/>
<path d="M86.5263 54.5784H80.8421V65.8555H86.5263V54.5784Z" fill="#CF8C3C"/>
<path d="M75.1579 54.5784H70.421V65.8555H75.1579V54.5784Z" fill="#FF9D13"/>
<path d="M86.4923 54.7241H75.1579L68.3667 48L79.7012 48L86.4923 54.7241Z" fill="#FF9D13"/>
<path d="M75.1579 54.5783H40.1053L46.8462 48H68.417L75.1579 54.5783Z" fill="#FFBC60"/>
<path d="M75.6265 112.552C75.6219 114.035 74.4086 115.237 72.91 115.241H68.8353C70.3339 115.246 71.5472 116.447 71.5518 117.931C71.5405 119.413 70.3294 120.609 68.8353 120.621H64.7606C66.2547 120.632 67.4658 121.831 67.4771 123.31C67.4725 124.794 66.2592 125.995 64.7606 126H45.7453L41.6706 121.965H26.73V105.828H40.3124L44.12 101.116C45.1477 99.843 46.7051 99.1034 48.3486 99.1034H56.6112V104.483H70.1935C71.6921 104.487 72.9055 105.689 72.91 107.172C72.8987 108.654 71.6899 109.851 70.1935 109.862H72.91C74.4041 109.873 75.6152 111.07 75.6265 112.552Z" fill="#FFDFB5"/>
<path d="M76.9847 89.6897V92.3794C76.9802 93.8631 75.7668 95.0645 74.2682 95.069H41.6706C40.172 95.0645 38.9587 93.8631 38.9542 92.3794V89.6897H76.9847Z" fill="#ACABB1"/>
<path d="M55.2529 69.5172H60.6859C61.4374 69.5172 62.0441 70.1179 62.0441 70.862C62.0441 71.6062 61.4374 72.2069 60.6859 72.2069H55.2529C54.5014 72.2069 53.8947 71.6062 53.8947 70.862C53.8947 70.1179 54.5014 69.5172 55.2529 69.5172Z" fill="#8E8E8E"/>
<path d="M59.3277 72.2069H56.6112V76.2414H59.3277V72.2069Z" fill="#ACABB1"/>
<path d="M74.2683 89.6896H41.6707C41.6684 85.7649 43.2417 82.0017 46.0442 79.2268C48.8467 76.452 52.6475 74.8942 56.6112 74.8965H59.3277C63.2915 74.8942 67.0923 76.452 69.8948 79.2268C72.6973 82.0017 74.2705 85.7649 74.2683 89.6896Z" fill="#8E8E8E"/>
<path d="M45.7895 54.5784H40.1053V57.3976H45.7895V54.5784Z" fill="#E58923"/>
<path d="M75.1579 54.5784H70.421V57.3976H75.1579V54.5784Z" fill="#E58923"/>
<path d="M55.2632 54.5784H49.579V57.3976H55.2632V54.5784Z" fill="#B4772E"/>
<path d="M86.5263 54.5784H80.8421V57.3976H86.5263V54.5784Z" fill="#B4772E"/>
<path d="M56.6112 104.483C58.1115 104.483 59.3277 103.279 59.3277 101.793C59.3277 100.308 58.1115 99.1034 56.6112 99.1034C55.1109 99.1034 53.8947 100.308 53.8947 101.793C53.8947 103.279 55.1109 104.483 56.6112 104.483Z" fill="#FFDFB5"/>
<path d="M26.3746 104.483H31.1353C32.446 104.483 33.5099 105.534 33.5099 106.834V120.961C33.5099 122.259 32.4482 123.313 31.1353 123.313H26.3746C25.0617 123.31 24 122.259 24 120.959V106.832C24 105.534 25.0617 104.483 26.3746 104.483Z" fill="#F15A24"/>
</svg>
