<svg width="117" height="126" viewBox="0 0 117 126" fill="none" xmlns="http://www.w3.org/2000/svg">
<path opacity="0.6" d="M117 58.5C117 76.3869 108.971 92.4011 96.3207 103.131C92.1156 106.7 77.3093 104.551 77.3093 104.551C77.3093 104.551 70.3622 116.169 63.8448 116.76C62.0834 116.919 60.3018 117 58.5 117C26.1909 117 0 90.8065 0 58.5C0 26.1909 26.1909 0 58.5 0C90.8065 0 117 26.1909 117 58.5Z" fill="#6FCF97"/>
<path d="M51 100.736L65.2139 114.992C66.704 115.022 68.1747 114.97 69.626 114.842C74.2479 114.434 79.1812 106.137 79.1812 106.137C79.1812 106.137 92.0974 108.49 95.0345 105.892C98.1986 103.093 109.093 95.6141 114 77.3689L76 29" fill="#6DCD95"/>
<path d="M83.1225 85.3037V54.8963C83.1225 52.1934 80.9299 50 78.2252 50C75.5206 50 73.3307 52.1934 73.3307 54.8963V76.7777L41 88.6996L49.395 97.5179L57.79 106.336L61.3461 113C72.6016 111.981 82.8499 107.469 91 100.555L83.1225 85.3037Z" fill="#C6895C"/>
<path d="M83.0607 85.562V54.9321C83.0607 52.2095 80.8055 50 78.0237 50C75.2419 50 72.9896 52.2095 72.9896 54.9321V76.9736L57 82.5226V106.743L57.0057 106.748L67.5004 126C79.0769 124.974 89.6174 120.426 98 113.461L83.0607 85.562Z" fill="#C6895C"/>
<path d="M45.8783 53.6599C44.4155 55.3368 41.8186 55.4738 40.2436 53.8791L31.1217 44.7575C29.6261 43.2615 29.6261 40.8365 31.1217 39.3405C32.5845 37.6636 35.1814 37.5266 36.7592 39.1185L45.8783 48.2429C47.3739 49.7389 47.3739 52.1639 45.8783 53.6599Z" fill="#C6895C"/>
<path d="M78 25H38V95H78V25Z" fill="#5A5A5A"/>
<path d="M78 25H57V95H78V25Z" fill="#32393F"/>
<path d="M76 29H41V88H76V29Z" fill="#9DCFFF"/>
<path d="M76 29H57V88H76V29Z" fill="#72BBFF"/>
<path d="M59 92.0017C59 93.105 58.3288 94 57.4987 94C56.6712 94 56 93.105 56 92.0017C56 90.8984 56.6712 90 57.4987 90C58.3262 90.0034 59 90.8984 59 92.0017Z" fill="#8B9AA6"/>
<path d="M57 90V94C58.1077 94 59 93.105 59 91.9983C59 90.8915 58.1043 90 57 90Z" fill="#697C84"/>
<path d="M69 80H47V58H55.8455L58 59.5798L60.1545 58H69V80Z" fill="#FFD300"/>
<path d="M59.6805 58H59.3503L57 59.5798V80H69V58H59.6805Z" fill="#FFB600"/>
<path d="M64 40.5402C64 44.1532 57.5 54 57.5 54C57.5 54 51 44.1561 51 40.5402C51 36.9272 53.9092 34 57.5 34C61.0908 33.9971 64 36.9272 64 40.5402Z" fill="url(#paint0_linear)"/>
<path d="M60 40.5C60 41.8817 58.8817 43 57.5 43C56.1183 43 55 41.8817 55 40.5C55 39.1183 56.1183 38 57.5 38C58.8817 38 60 39.1183 60 40.5Z" fill="white"/>
<path d="M60 58H53V64H60V58Z" fill="white"/>
<path d="M53 72H50V76H53V72Z" fill="#FFB600"/>
<path d="M42.8106 84.4991C41.2967 86.3767 38.6092 86.5301 36.9763 84.7476C34.7253 81.8791 28.3836 77.7925 32.1909 73.5005C33.7048 71.6229 36.3923 71.4695 38.0224 73.255C40.2733 76.1236 46.6151 80.2101 42.8106 84.4991Z" fill="#C6895C"/>
<path d="M42.8106 73.6063C41.2967 75.3498 38.6092 75.4922 36.9763 73.8371C34.7253 71.1707 28.3836 67.379 32.1909 63.3937C33.7048 61.6502 36.3923 61.5078 38.0224 63.1629C40.2733 65.8265 46.6151 69.621 42.8106 73.6063Z" fill="#C6895C"/>
<path d="M42.8106 61.6063C41.2967 63.3498 38.6092 63.4922 36.9763 61.8371C34.7253 59.1707 28.3836 55.379 32.1909 51.3937C33.7048 49.6502 36.3923 49.5078 38.0224 51.1629C40.2733 53.8293 46.6151 57.6238 42.8106 61.6063Z" fill="#C6895C"/>
<path d="M57 34V38.3397C58.5243 38.3397 59.7581 39.4925 59.7581 40.9167C59.7581 42.3409 58.5243 43.4937 57 43.4937V54C57 54 64 44.1561 64 40.5402C64 36.9301 60.867 34 57 34Z" fill="#F26124"/>
<path d="M60 40.5C60 39.1183 58.658 38 57 38V43C58.6546 43 60 41.8817 60 40.5Z" fill="white"/>
<path d="M60 58H57V64H60V58Z" fill="#E3EAEE"/>
<defs>
<linearGradient id="paint0_linear" x1="64.585" y1="34" x2="57.8344" y2="56.0887" gradientUnits="userSpaceOnUse">
<stop stop-color="#F39323"/>
<stop offset="0.393311" stop-color="#F27D23"/>
<stop offset="1" stop-color="#F15A24"/>
</linearGradient>
</defs>
</svg>
